<svg version="1.2" xmlns="http://www.w3.org/2000/svg" viewBox="0 0 500 500" width="500" height="500"><style>.a{fill:#f3cd15}.b{fill:#495f56}.c{fill:#4b6059}.d{fill:#495f55}.e{fill:#4c5f52}.f{fill:#dfc53e}.g{fill:#eac931}.h{fill:#f2cd20}.i{fill:#e7c92c}.j{fill:#f2ce20}.k{fill:#f3ce0d}.l{fill:#f3cd1d}.m{fill:#f3da62}.n{fill:#f1dd6d}.o{fill:#e7c92d}.p{fill:#f4cd1f}.q{fill:#f2d754}.r{fill:#f0cd2d}.s{fill:#efd857}.t{fill:#656a3b}.u{fill:#f0d54e}.v{fill:#5e6639}.w{fill:#f2ce0e}.x{fill:#d9c13e}.y{fill:#c5b751}.z{fill:#e9c935}.A{fill:#f1ce1f}.B{fill:#f0d75e}.C{fill:#f1d759}.D{fill:#f1d347}.E{fill:#e8c92c}.F{fill:#475e56}.G{fill:#616a42}.H{fill:#f3ce05}.I{fill:#edcc2a}.J{fill:#616946}.K{fill:#f2da67}.L{fill:#ecca2f}.M{fill:#f3dc6f}.N{fill:#e5c93c}.O{fill:#f2cd17}.P{fill:#f1dd72}.Q{fill:#f4cc23}.R{fill:#f4ce09}.S{fill:#f6cb1d}.T{fill:#f5cc21}.U{fill:#dbc23c}.V{fill:#6f703c}.W{fill:#d9c442}.X{fill:#f1d44d}.Y{fill:#f0dc6d}.Z{fill:#f0d857}.a0{fill:#f0d54c}.a1{fill:#f2cd1a}.a2{fill:#f3d340}.a3{fill:#f2cf03}.a4{fill:#ebc82c}.a5{fill:#f3d13a}.a6{fill:#f0d450}.a7{fill:#f3d95e}.a8{fill:#f2db73}.a9{fill:#5c6743}.aa{fill:#f0cf07}.ab{fill:#f2cf06}.ac{fill:#f0d546}.ad{fill:#f3ce04}.ae{fill:#f1d54b}.af{fill:#f2cf07}.ag{fill:#f3d030}.ah{fill:#f1ce15}.ai{fill:#eed964}.aj{fill:#5a6542}.ak{fill:#f2d657}.al{fill:#6c6f3f}.am{fill:#74827f}.an{fill:#f3cf14}.ao{fill:#f0d967}.ap{fill:#5d663f}.aq{fill:#f1db70}.ar{fill:#f2ce28}.as{fill:#f2cf04}.at{fill:#f2db6d}.au{fill:#62673c}.av{fill:#656a39}.aw{fill:#dcc849}.ax{fill:#e9cb27}.ay{fill:#f0d64f}.az{fill:#f0d340}.aA{fill:#f3cf01}.aB{fill:#dcc542}.aC{fill:#dcc639}.aD{fill:#dac441}.aE{fill:#65683b}.aF{fill:#f2ce1e}.aG{fill:#efd003}.aH{fill:#f2ce06}.aI{fill:#65683a}.aJ{fill:#f1d761}.aK{fill:#cbbd52}.aL{fill:#e0c63c}.aM{fill:#6b6f3b}.aN{fill:#686b44}.aO{fill:#848660}.aP{fill:#efd342}.aQ{fill:#f2cf02}.aR{fill:#dcc13d}.aS{fill:#696e3f}.aT{fill:#f6cd02}.aU{fill:#f2ce01}.aV{fill:#f4ce01}.aW{fill:#f2d34a}.aX{fill:#eed656}.aY{fill:#f5cb26}.aZ{fill:#d8c23e}.b0{fill:#f3e181}.b1{fill:#f3d142}.b2{fill:#f0cf06}.b3{fill:#f4ce02}.b4{fill:#d9c23f}.b5{fill:#f0ce1c}.b6{fill:#f3dd76}.b7{fill:#dbc438}.b8{fill:#eedb65}.b9{fill:#f5cc06}.ba{fill:#f1cf03}.bb{fill:#e0c745}.bc{fill:#f1ce25}.bd{fill:#676e41}.be{fill:#f1cf06}.bf{fill:#f2d963}.bg{fill:#f0da67}.bh{fill:#e0cb36}.bi{fill:#f0d54a}.bj{fill:#f0cd16}.bk{fill:#f5ce01}.bl{fill:#f3cd04}.bm{fill:#f1da70}.bn{fill:#f5cc24}.bo{fill:#f6cc26}.bp{fill:#838f8d}.bq{fill:#f6ca09}.br{fill:#f4ce05}.bs{fill:#f1d756}.bt{fill:#f4dc70}.bu{fill:#efd105}.bv{fill:#eccb2e}.bw{fill:#5a6342}.bx{fill:#e6ca39}.by{fill:#676c43}.bz{fill:#d5c240}.bA{fill:#f7cb11}.bB{fill:#f9ca22}.bC{fill:#5a6443}.bD{fill:#f1cd15}.bE{fill:#f7ca2b}.bF{fill:#f0db6b}.bG{fill:#f4ce03}.bH{fill:#f3cf06}.bI{fill:#f1df6a}.bJ{fill:#f7cd05}.bK{fill:#f5cc03}</style><path class="a" d="m268 0.1q4.6 0 9.1-0.1c13.3-0.1 24 1.9 36.3 7.1 7.3 3 14.8 4.8 22.4 6.7 5.6 1.6 10.7 3.2 14.7 7.5 2 3.6 3.4 6.4 3.2 10.5-3.2 9-15.7 14.2-23.9 18.2-18.4 8-37.4 12.9-57.3 15.8 4.5 4.9 8.9 8.2 14.7 11.4 5.3 3 9.9 6.1 14.6 10q3.4 2 6.8 4c7.5 4.8 13.7 10.3 20.1 16.4 2.6 2.5 5.2 4.7 8 6.9 3.6 3.2 5.9 6 8.5 10 2.7 4.2 4.8 6.8 8.7 9.9 4.9 4.3 7.2 8.9 10.1 14.6 1.7 3.5 1.7 3.5 3.8 6.1 2.5 3.4 4.2 6.8 6 10.6 1 2 1 2 2 4q1 2.1 2 4.1 1.1 2 2.1 4.1c1.9 3.8 3.1 7.3 4.3 11.4 1.6 5.6 3.4 11.2 5.4 16.8 0.6 1.8 0.6 1.8 1.3 3.7q1.2 3.6 2.6 7.2c2.3 6.7 3.5 12.2 2.9 19.3 0 3.1 0 3.1 1.4 6.6 1.6 4.9 1.7 9 1.7 14.1q0 1.4 0 2.8 0 2.9 0 5.8-0.1 4.4-0.1 8.8c0 14.3 0 14.3-1 19.8-0.8 3.7-0.8 3.7 0.2 7.7 0.6 4 0.6 4-0.6 6.7-2.1 5.6-2.7 11.4-3.4 17.3-2.3 16.6-6.4 32-11.8 47.8q-2.5 7.5-4.9 15c-0.7 2.1-0.7 2.1-1.4 4.3q-1.3 4.1-2.6 8.2c-2.5 8-5.8 14.6-10.3 21.6-2.5 4.3-3.5 8.1-4.6 12.9-1.5 6.5-2.9 9.7-7.8 14.2-1.8 3.4-2.9 7-4 10.6-0.8 2.1-0.8 2.1-1.6 4.3-1 4.9-1.1 8.6-0.9 13.6 0.1 8.1-1.5 13.8-5.5 20.8-22.5 1.4-22.5 1.4-29-3.7q-2.2-2.1-4.4-4.3-2.1-1.3-4.2-2.7c-3.8-2.6-3.8-2.6-6.6-5.9-4.9-4.3-9.9-6.1-15.9-8.4-3.9-1.7-3.9-1.7-7.2-3.7-4.1-2.3-7.8-3.2-12.3-4.3-21.8-5.4-40.5-13.1-56.2-29.5-2.6-2.5-5.2-4.7-8.3-6.8-9.2-6.7-16.8-15.3-24.2-23.9-2.8-3.2-5.6-6.3-8.4-9.4-7.8-8.7-14.7-17.2-20.1-27.5-2.3-3.9-5-7.3-7.8-10.8-10.7-14.1-16.5-28.6-20.2-45.7-1-4.8-2.2-9.5-3.4-14.3q-0.3-1.3-0.7-2.7c-0.9-3.6-1.8-7.1-3.3-10.5-1.5-3.9-1.7-7.4-1.9-11.6-0.4-5.1-0.7-10.2-1.4-15.3-0.6-5-0.6-9.8-0.5-14.8 0-2.9 0-2.9-0.7-5.9-3.9-21.1-0.5-44.8 9.4-63.7 1.8-3.7 2.7-6.9 3.6-11 1.8-7 4.9-11.7 9.3-17.5 6.1-9 9.2-20 12.9-30.2 6.5-17.4 6.5-17.4 10.8-25.1 1.6-3.4 1.9-6.4 2.2-10.2q0.2-2.1 0.4-4.3 0.4-4.5 0.7-8.9c1.2-12.3 5.1-20.7 13.4-29.9 9.3-7.5 19.2-13.6 31.5-13.5 5.2-0.1 7.6-2.3 11.8-5.4 5.5-3.4 11.2-6.4 17-9.4q1.3-0.7 2.7-1.4c12.9-6.6 25.5-7 39.8-6.9z"/><path class="b" d="m199.1 32.5c2.5 1.6 2.5 1.6 4.8 3.7q1.4 1.3 2.8 2.6c4.4 4.3 8.8 8.8 13.2 13.2 4.4 4.5 8.9 8.2 14 11.7 4.4 3.6 8 8 11.7 12.3 2.8 3.3 2.8 3.3 6.4 6 3.4 2.7 5.2 5.4 7.1 9.2 1.3 2.7 1.3 2.7 3.1 5.2 10.4 17.1 9.3 41.5 10 61.1 0.2 5 0.9 10 1.6 15q0.2 3.3 0.1 6.6 0 1.5 0 3.1 0 1.1-0.1 2.3c-9.9-0.5-16.7-3.2-25.3-8q-2.1-1-4.3-2.1-4-2-7.9-4.3c-6.5-3.8-13.4-6.6-20.4-9.6-6-2.6-11.3-5.6-16.8-9.3q-2.5-1.2-5.1-2.3c-7.1-3.4-11.5-8.9-16.2-15.1q-1.3-1.6-2.6-3.3c-8.9-12.5-12.4-28.3-10.3-43.6q0.8-4.7 1.8-9.5 0.4-1.7 0.7-3.4c1.9-8.3 4.6-15.6 9.1-22.8q1-1.8 2-3.5 1-1.6 2-3.2 0.7-1.3 1.5-2.7 0.9-1.4 1.7-2.9 0.8-1.3 1.6-2.7c4-5.2 7.8-5.7 13.8-3.7z"/><path class="c" d="m268 0.1q4.6 0 9.1-0.1c13.3-0.1 24 1.9 36.3 7.1 7.3 3 14.8 4.8 22.4 6.7 5.6 1.6 10.7 3.2 14.7 7.5 2 3.6 3.4 6.4 3.2 10.5-3.2 9-15.7 14.2-23.9 18.2-20.5 9-48.5 20-70.8 13.2q-4-1.6-7.8-3.5c-4-2-4-2-8.4-3.1-15.5-4.1-25.6-14.6-35.6-26.8q0-0.6 0-1.3c34.6-1.6 69.2-3.2 104-2.7q0-1.3 0-2.6c-1.3-0.1-1.3-0.1-2.7-0.1q-5.9-0.3-11.8-0.5-2-0.1-4.1-0.2-1.9-0.1-4-0.2-1.8 0-3.6-0.1c-3.2-0.3-3.2-0.3-7.2-1.6-3.8-0.2-7.6-0.3-11.4-0.3-1.7 0-1.7 0-3.4-0.1q-3.6 0-7.2 0-3.7 0-7.3-0.1c-13.8-0.2-25.9 0.1-39 4.7-3.7 1.1-3.7 1.1-9 1.1q0-1.3 0-2.6c7.9-5.7 16.3-10.4 25-14.8q1.3-0.7 2.7-1.4c12.9-6.6 25.5-7 39.8-6.9z"/><path class="d" d="m199.1 32.5c2.5 1.6 2.5 1.6 4.8 3.7q1.4 1.3 2.8 2.6c4.4 4.3 8.8 8.8 13.2 13.2 4.4 4.5 8.9 8.2 14 11.7 4.4 3.6 8 8 11.7 12.3 2.8 3.3 2.8 3.3 6.4 6 3.4 2.7 5.2 5.4 7.1 9.2 1.3 2.7 1.3 2.7 3.1 5.2 10.4 17.1 9.3 41.5 10 61.1 0.2 5 0.9 10 1.6 15q0.2 3.3 0.1 6.6 0 1.5 0 3.1 0 1.1-0.1 2.3c-11.5-0.5-19.8-4.3-29.3-10.7 7.2 0.5 11.6 0.9 17.3 5.4 3.6 0.7 7 1 10.7 1.3 0-2.2 0-4.4 0-6.7q-1.3 0-2.7 0c0-1.5 0-1.5-0.1-3q-0.1-6.7-0.4-13.5 0-2.3-0.1-4.7-0.1-2.2-0.2-4.5 0-2.1-0.1-4.2c-0.1-3.6-0.1-3.6-3.1-6.1q-1.3 0-2.6 0c0 3.1 0 6.2 0 9.4-4.1 1.2-5.2 1.4-9.4 0 0.9 2.2 1.8 4.4 2.7 6.6-4 2.7-4 2.7-8 2.7q0-1.3 0-2.7-2-0.6-4-1.3-0.5-1.4-1-2.7c-1.6-3.9-3.1-5.8-5.9-8.8-5.7-6.3-10.1-13.2-14.4-20.5q-1.3-2-2.5-4.1c-4.7-7.8-8.6-15.6-12.2-23.9q-2-4.6-4.1-9.3-1.3-3.1-2.7-6.2c-2.3-5.3-4.8-10.2-7.9-15.2-1.4-3.1-2.7-6.2-4-9.3q-1.3 2-2.7 4-1.3 2-2.6 4-1.9 0.1-3.9 0.2-2 0.6-4.1 1.1c-1.8 3.7-2.9 6.8-4 10.7q-1.1 3-2.3 6-0.8 2.3-1.7 4.7c-2.8-8 0.9-17.1 4-24.6 1.2-2.5 2.6-5 4-7.4q0.9-1.7 1.9-3.4 1-1.6 2.1-3.3 0.7-1.3 1.5-2.7 0.9-1.4 1.7-2.9 0.8-1.3 1.6-2.7c4-5.2 7.8-5.7 13.8-3.7z"/><path class="e" d="m199.1 32.5c2.5 1.6 2.5 1.6 4.8 3.7q1.3 1.3 2.7 2.5c6.5 6.3 12.9 12.7 19.2 19.1q2 2 4 4-4 0-8.1-0.1c-2.7 0-2.7 0-5.2 1.5-3 5.5-3.7 11.1-2.7 17.3 1.2 2.9 2.8 5.5 4.4 8.2 3.6 6 6.7 12.2 9.9 18.3 2.3 4.3 4.5 8.4 7.3 12.4 2.2 3.5 3.6 6.5 5 10.3 2 5.4 4.5 9.5 7.9 14 2.2 3.1 3.2 6.5 4.2 10.1q-1.3 0-2.7 0 0-1.3 0-2.6-1.1-0.5-2.3-1c-10.9-6.2-18.1-19.2-24.3-29.7q-1.3-2-2.5-4.1c-4.7-7.8-8.6-15.6-12.2-23.9q-2-4.6-4.1-9.3-1.3-3.1-2.7-6.2c-2.3-5.3-4.8-10.2-7.9-15.2-1.4-3.1-2.7-6.2-4-9.3q-1.3 2-2.7 4-1.3 2-2.6 4-1.9 0.1-3.9 0.2-2 0.6-4.1 1.1c-1.8 3.7-2.9 6.8-4 10.7q-1.1 3-2.3 6-0.8 2.3-1.7 4.7c-2.8-8 0.9-17.1 4-24.6 1.2-2.5 2.6-5 4-7.4q0.9-1.7 1.9-3.4 1-1.6 2.1-3.3 0.7-1.3 1.5-2.7 0.9-1.4 1.7-2.9 0.8-1.3 1.6-2.7c4-5.2 7.8-5.7 13.8-3.7z"/><path class="f" d="m252.1 18.7q3.7 0.1 7.3 0.1 3.5 0 7 0 1.6 0 3.3 0.1c4.4 0 8 0.2 12.1 1.6q3.4 0.4 6.8 0.7 2 0.2 4 0.4 2 0.1 4.1 0.3 2.1 0.2 4.2 0.4 5.1 0.4 10.3 0.9 0 1.3 0 2.6c-33.9 1.3-67.8 2.7-102.7 4 18.9 19.2 18.9 19.2 41.3 28q3.8 1.5 7.4 3.1c5.2 2.1 9.8 3.1 15.3 3.6q0 2 0 4c-2.6 0-5.3 0-8 0q0-1.3 0-2.7-2.1-0.2-4.3-0.5c-4.4-0.7-6.6-1.5-10.4-3.5-5.3-1.6-10.5-3-16-4q1.7 1.5 3.4 3.1c3.3 3.6 3.3 3.6 3.3 7.6q1.3 0 2.7 0-0.7 2.6-1.4 5.3-0.8-1-1.6-2-1.2-1.4-2.4-2.8-1.1-1.3-2.2-2.7c-2.6-2.7-5.1-4.7-8.1-6.9-6-4.4-11.2-9.4-16.3-14.7q-1.4-1.4-2.8-2.8-3.3-3.4-6.6-6.7 2.6-0.7 5.4-1.4-0.7-2.6-1.4-5.3c-2.6 0-5.3 0-8 0q0-1.3 0-2.7-2.8 0.6-5.7 1.2c-1.5 0.3-1.5 0.3-3.1 0.6-3.2 0.8-3.2 0.8-6.1 2.3-2.4 1.3-2.4 1.3-5.4 0.8q-1.2-0.5-2.4-0.9c8.2-3.8 16.6-7.5 25.7-5.8 5.4 0.5 8.2-0.2 13.2-2.1 12.6-3.9 25-3.4 38.1-3.2z"/><path class="g" d="m197.8 25.8q0 1.3 0 2.7c2.7 0 5.3 0 8 0 0.9 2.2 1.8 4.4 2.7 6.7q-1.6-0.4-3.3-0.7-2.2-0.4-4.4-0.8-2.1-0.5-4.3-0.9c-4.3-0.3-5.9-0.3-9.4 2.4-2.1 3.2-2.1 3.2-4 7-2.1 4.1-4.2 7.9-6.9 11.8-9 14.3-11.3 34-10.4 50.5-3.7-3.7-3.2-6.4-3.5-11.5q-0.1-2.4-0.3-4.8-0.1-1.8-0.2-3.7c-2.6-0.4-5.3-0.9-8-1.3-0.4 4.4-0.9 8.8-1.3 13.3q-2.7 0-5.4 0 0.7 2 1.4 4 1.3 0 2.6 0 0 2 0 4-1.2 0.2-2.5 0.3c-3 0.8-3 0.8-4.5 3.8q-0.5 1.3-1 2.6-1.3 0-2.6 0 0.8-3 1.6-6 0.5-1.7 1-3.4c1.1-3.3 2.4-5.8 4.1-8.7 4.2-8.3 4.1-17.6 4.7-26.8 1.2-12.9 5.8-22 15-31.1 4.7-3.9 8.8-5.4 14.8-6.2 2.9-0.4 2.9-0.4 5.5-1.9 3.6-1.8 6.7-1.5 10.6-1.3z"/><path class="h" d="m139.1 111.2c1.2 4.1 1.4 6.5 0 10.6q2-0.6 4-1.3-0.6 2.6-1.3 5.3-2 0-4 0c-0.4 7.2-0.4 7.2 1.3 14 2.1 5.2 2.6 9.8 1.4 15.4-2.5 4.3-5.3 7.6-9.4 10.6-4.3 0.5-4.3 0.5-8 0-3.4 2.5-3.9 4-5.3 8q-1.3 0-2.7 0c0 2.7 0 5.3 0 8-1.9 0.7-1.9 0.7-4 1.4-2.7 5.4-1.3 11.6 0 17.3q-1.3-0.6-2.6-1.3-0.1 2.3-0.3 4.6-0.1 3-0.3 6c-0.1 1.5-0.1 1.5-0.2 3-0.4 7.6-0.4 7.6-1.9 9q-0.2 4-0.2 8 0 2.2 0 4.5c-0.2 3.4-0.2 3.4 1.5 4.9 0.3 3.6 0.6 7.3 0.8 10.9 0 1.6 0 1.6 0.1 3.3q0.3 5.3 0.6 10.5 0.1 3.6 0.3 7.1 0.5 8.8 0.9 17.5c-3.6-5.4-4.2-8.3-4.7-14.7-0.3-5.2-0.7-10.4-1.4-15.6-0.6-5-0.6-9.8-0.5-14.8 0-2.9 0-2.9-0.7-5.9-3.9-21.1-0.5-44.8 9.4-63.7 1.8-3.7 2.7-6.9 3.6-11 1.8-7 4.9-11.7 9.3-17.5 4.1-6 6.5-12.7 9-19.5q0.8-2.1 1.6-4.2 1.9-5.2 3.7-10.4z"/><path class="i" d="m195.1 55.2c7.2 5.3 10.7 9.8 14.4 17.9 1.6 3.2 3.3 6 5.4 8.9 4.4 6.3 7.6 13 11 19.9 2.5 5.2 5.2 10.2 8.3 15.1 3.2 5.3 5.4 10.6 7.6 16.4 1.7 3.9 4 7 6.5 10.3 2.2 3.1 3.2 6.5 4.2 10.1q-1.3 0-2.7 0 0-1.3 0-2.6-1.1-0.5-2.3-1c-10.9-6.2-18.1-19.2-24.3-29.7q-1.3-2-2.5-4.1c-4.1-6.8-7.7-13.5-10.8-20.8q-2.1-4.5-4.2-9.1c-4.8-10.3-9.1-19.9-10.6-31.3z"/><path class="j" d="m176.5 409.9q1.3 0 2.6 0 1.4 1.9 2.7 4c2.8 0.9 2.8 0.9 5.3 1.3q0 2 0 4 1.6 0.3 3.3 0.6c3.4 0.7 3.4 0.7 4.7 2.1q1.4-2.7 2.7-5.4c2.2 0 4.4 0 6.7 0 0 2.7 0 5.3 0 8q1.3 0 2.7 0 0.6 1.4 1.3 2.7 1.3 0 2.7 0 0-1.3 0-2.7 1.9 0 4 0 0 3.4 0 6.7c-1.4 1.3-1.4 1.3-5.5 1.4q-1.9 0-3.9-0.1 0 2 0 4 2.6 0 5.4 0c0.8 2.7 1.7 5.3 2.6 8q2 0 4 0c0-2.6 0-5.2 0-8 2.7 1.9 2.7 1.9 5.4 4q0 1.4 0 2.7c2.2 0 4.4 0 6.6 0 0.7 2 0.7 2 1.4 4q-1.4 0-2.7 0 0 2.6 0 5.3 2-0.6 4-1.3 0.6-1.3 1.3-2.7c2.2 0 4.4 0 6.7 0q0 1.4 0 2.7-2.6 0-5.3 0 0 2 0 4c7.5 2.6 15 4.9 22.7 7 2.6 1 2.6 1 3.9 3.7-22.2-2.3-42.9-12.9-58.2-28.9-2.7-2.7-5.4-5-8.5-7.2-7.1-5.1-15.8-11.5-18.6-19.9z"/><path class="k" d="m164.5 37.8q1.3 0 2.6 0c-0.5 3.3-0.5 3.3-1.3 6.7-1.3 0.6-1.3 0.6-2.7 1.3-0.8 4.1-0.8 4.1-1.3 8q2.6-1.3 5.3-2.6c0.5 2.2 0.9 4.4 1.4 6.6q-2 1.3-4 2.7-2-2-4-4-0.4 2.6-0.8 5.2-0.2 1.5-0.4 3-0.1 1.2-0.2 2.5 0.7 0.6 1.4 1.3c0.9-2.2 1.7-4.4 2.6-6.7q2.7 0.7 5.4 1.4c-0.1 1.1-0.1 1.1-0.3 2.2-2.2 19.5-2.2 19.5-2.4 39.1-3.7-3.7-3.2-6.4-3.5-11.5q-0.1-2.4-0.3-4.8-0.1-1.8-0.2-3.7c-2.6-0.4-5.3-0.9-8-1.3-0.4 4.4-0.9 8.8-1.3 13.3q-2.7 0-5.4 0 0.7 2 1.4 4 1.3 0 2.6 0 0 2 0 4-1.2 0.2-2.5 0.3c-3 0.8-3 0.8-4.5 3.8q-0.5 1.3-1 2.6-1.3 0-2.6 0 0.8-3 1.6-6 0.5-1.7 1-3.4c1.1-3.3 2.4-5.8 4.1-8.7 4.2-8.3 4.1-17.6 4.7-26.8 1.1-11.3 4.4-20.3 12.6-28.5z"/><path class="l" d="m268.5 117.8c2.6 4 3.9 7.5 5.3 12q1.3-2.6 2.7-5.3c4 0.7 4 0.7 8 1.3-0.3 3.2-0.3 3.2-1.3 6.7-2.8 1.8-2.8 1.8-5.4 2.7 0.5 3.5 0.9 7 1.4 10.6q1.3 0 2.6 0c0.9-3.9 1.8-7.9 2.7-12q1.3 0 2.7 0c1.5 4.7 1.4 8.5 1.3 13.4q-2 0-4 0 0.1 2.2 0.2 4.5c-0.1 2.4-0.1 2.4-0.2 4.8q-2 1.3-4 2.7c-0.9-3.1-1.8-6.2-2.7-9.4q-1.3 0-2.6 0 0.3 1.7 0.6 3.3c0.8 5.5 0.9 10.7 0.9 16.2q0 1.5 0 3.1c0 4.8-0.4 8.7-1.5 13.4-4.9 0-9.7 0-14.7 0q-1.3-2.6-2.7-5.3c5.3 1.3 10.6 2.6 16 4q-0.2-1.8-0.5-3.7c-1.6-11.7-2.6-23.4-3-35.2-0.2-5.8-0.8-11.4-1.8-17.1-0.2-3.6-0.1-7.1 0-10.7z"/><path class="m" d="m385.8 199.2c4.2 4.1 5.1 9.2 6.9 14.7q0.5 1.7 1.1 3.3c2.1 6.6 3.1 12.2 2.6 19 0 3.2 0 3.2 1.4 6.7 1.6 4.9 1.7 9 1.7 14.1 0 1.4 0 1.4 0 2.8q0 2.9 0 5.8-0.1 4.4-0.1 8.8c0 14.3 0 14.3-1 19.8-0.8 3.7-0.8 3.7 0.2 7.7 0.6 4 0.6 4-0.6 6.7-2.1 5.6-2.7 11.4-3.4 17.3-2.1 15.9-5.6 30.4-11.4 45.3q-0.7 0-1.4 0c0-3.1 0-6.2 0-9.3q1.4 0 2.7 0 0.3-1.4 0.5-2.8 0.4-1.7 0.8-3.6 0.3-1.7 0.7-3.5 0.6-3.1 1.4-6c1.2-5.3 1.2-10.8 1.6-16.3 0.3-3.8 0.3-3.8 1.7-6.5q-1.3 0-2.7 0c0.8-3.6 1.8-6.4 3.3-9.8 3.1-8 3-16.5 3.4-24.9q1.3 0 2.6 0c-0.4-9.2-0.8-18.5-1.3-28q-0.6 0-1.3 0-0.1-2-0.3-4c-0.1-2.6-0.1-2.6-0.3-5.2q-0.2-2.6-0.3-5.2c0-4.1 0-4.1-1.8-5.6q-0.4-3.8-0.6-7.6c-0.4-5.8-0.9-11-3.4-16.4q-1.3-0.6-2.7-1.3c0-5.3 0-10.6 0-16z"/><path class="n" d="m115.1 164.5q0.7 0 1.4 0c-0.5 5.7-0.9 11.4-1.4 17.3q-1.9 0.7-4 1.4c-2.7 5.4-1.3 11.6 0 17.3q-1.3-0.6-2.6-1.3-0.1 2.3-0.3 4.6-0.1 3-0.3 6c-0.1 1.5-0.1 1.5-0.2 3-0.4 7.6-0.4 7.6-1.9 9q-0.2 4-0.2 8 0 2.2 0 4.5c-0.2 3.4-0.2 3.4 1.5 4.9 0.3 3.6 0.6 7.3 0.8 10.9 0 1.6 0 1.6 0.1 3.3q0.3 5.3 0.6 10.5 0.1 3.6 0.3 7.1 0.5 8.8 0.9 17.5c-3.6-5.4-4.2-8.3-4.7-14.7-0.3-5.2-0.7-10.4-1.4-15.6-0.6-5-0.6-9.8-0.5-14.8 0-2.9 0-2.9-0.7-5.9-3.5-18.9-1.4-42.5 7.3-59.7 3.3-6.4 3.3-6.4 5.3-13.3z"/><path class="o" d="m219.2 92.5c3.5 4.5 6.3 9.2 9.1 14.2q0.7 1.2 1.4 2.5c4.4 7.7 8.3 15.5 12.1 23.4 2.8 5.7 5.9 11.1 9.4 16.4 1.3 2.2 1.3 2.2 1.3 4.8q-1.3 0-2.7 0 0-1.3 0-2.6-1.1-0.5-2.3-1c-9.7-5.5-17.7-17.4-23-27q0-1.3 0-2.7c4 1.3 4 1.3 5.3 4 1.1-2.4 1.1-2.4 1.4-5.3-2.3-3.9-4.3-5.5-8-8q0.6-2 1.3-4-1.3 0-2.7 0c0-2.7 0-5.3 0-8q-1.3 0-2.6 0c0-2.2 0-4.4 0-6.7z"/><path class="p" d="m261.8 465.9c4.4 0 8.8 0 13.4 0q0.6 2.6 1.3 5.3 1.2 0 2.5 0 1.6-0.1 3.2-0.1c1.6 0 1.6 0 3.3 0 3 0.1 3 0.1 7 1.4q0 2 0 4 2 0 4 0-0.7-1.9-1.3-4 1.3 0 2.6 0 0.7-1.3 1.4-2.6 0 1.3 0 2.6c3.3 0.7 3.3 0.7 6.6 1.4q0-2 0-4 2.7 0 5.4 0 0 2.6 0 5.3-2.7 0-5.4 0c-0.4 2.2-0.8 4.4-1.3 6.7-2.2-0.9-4.4-1.8-6.7-2.7 0.9 2.2 1.8 4.4 2.7 6.7 3.1-0.9 6.2-1.8 9.3-2.7 0.7 5.3 0.7 5.3 1.4 10.7-7.4-3.8-12.8-7.5-18.7-13.4-3.4-2-7-3.6-10.7-5.3q-5-2.6-10.1-5.3c-3.3-1.4-6.3-2.1-9.9-2.7q0-0.6 0-1.3z"/><path class="q" d="m135.1 343.2q1.4 0 2.7 0 1 3.5 2 6.9 0.6 1.9 1.1 3.9c0.9 3.7 1.1 6.8 0.9 10.5q1.3 0 2.7 0 1.3-2.6 2.6-5.3 0.7 0.7 1.4 1.3c0 3.1-0.2 6-0.4 9.1 0.5 3.6 1.7 4.5 4.4 6.9q0 1.3 0 2.7 1.9-0.7 4-1.3c0.4 3 0.9 6.1 1.3 9.3 4.5 2 4.5 2 9.3 2.7 2.2 4.6 3 8.2 2.7 13.3q-2.2-2.3-4.5-4.5-2.3-2.3-4.7-4.5c-5.9-5.6-10.2-11.2-14.2-18.3-4.8-8.4-10.3-16.1-16.6-23.4q0.7-1.3 1.3-2.6 2 0 4 0c0-2.2 0-4.4 0-6.7z"/><path class="r" d="m259.7 20.2q2.6-0.1 5.3-0.1 2.4 0 4.9 0 2.2 0 4.4 0c3.5 0.4 3.5 0.4 6.2 3.1-3.8 3.7-14.5 2.7-19.7 2.8q-3.4 0-6.8-0.1-1.8 0-3.6 0-5.7 0-11.3 0-3.9 0-7.8 0-9.4 0-18.8-0.1c12.1-8 33.3-5.6 47.2-5.6z"/><path class="s" d="m357.8 432.5c1.4 4 1.4 4-0.3 8.7-2.3 4.7-2.3 4.7-4.3 6.7-3.5 3.5-4.5 8-6 12.6q-0.8 2.1-1.6 4.3c-1 4.9-1.1 8.6-0.9 13.6 0.1 8.1-1.5 13.8-5.5 20.8-1.6-5.3-0.8-9.2 0-14.7q0-4.7-0.1-9.5c0.1-2.5 0.1-2.5 1.4-3.8 0.3-4 0.5-8.1 0.7-12.1 0.7-4.2 1.3-5.5 4.6-7.9q0.7 0 1.4 0c0.4-2.2 0.9-4.4 1.3-6.7q1.3 0 2.7 0 0.5-1.1 1.1-2.2c1.7-3.4 3.6-6.5 5.5-9.8z"/><path class="t" d="m264.5 104.5c3.1 3.1 3.2 4.2 3.7 8.4q0.3 1.8 0.5 3.6 0.3 1.9 0.5 3.8 0.3 2 0.6 4c1.4 11 2 22 2.4 33.2 0.2 5 0.9 10 1.6 15q0.2 3.3 0.1 6.6 0 1.5 0 3.1 0 1.1-0.1 2.3c-11.5-0.5-19.8-4.3-29.3-10.7 7.2 0.5 11.6 0.9 17.3 5.4 3.6 0.7 7 1 10.7 1.3 0-2.2 0-4.4 0-6.7q-1.3 0-2.7 0 0-1.4-0.1-3-0.2-6.7-0.5-13.5 0-2.3-0.1-4.7-0.1-2.2-0.2-4.5-0.1-2.1-0.1-4.2c-0.1-3.4-0.1-3.4-1.6-6.1q-0.4-4.3-0.7-8.6c-0.3-4.6-0.5-8.3-2-12.7q-0.1-3.1-0.1-6.3 0-1.6 0-3.2 0.1-1.2 0.1-2.5z"/><path class="u" d="m323.2 103.2q0.8 0.7 1.7 1.5 1.2 1 2.4 2 1.3 1.2 2.6 2.3c2.2 1.8 4.4 3.5 6.6 5.2 4.7 3.8 7.7 8.8 11 13.8 2.1 2.9 4 4.7 6.8 6.8 4.1 3.5 5 5.9 6.2 11q-2.6 0-5.3 0c0-2.2 0-4.4 0-6.6-2.2 0.8-4.4 1.7-6.7 2.6q-0.7-1.9-1.3-4 1.3 0 2.6 0-0.6-1.9-1.3-4-2-0.6-4-1.3 0 1.3 0 2.7-1.3 0-2.7 0c0.1-1.9 0.1-1.9 0.1-3.8 0.1-4.3 0.1-4.3-1.4-8.2q-1.3 0-2.7 0-0.6-1.3-1.3-2.7-1.6-0.6-3.3-1.3-1.7-0.6-3.4-1.4-0.6-1.9-1.3-4-2-0.6-4-1.3c-0.4-3.1-0.9-6.2-1.3-9.3z"/><path class="v" d="m311.2 23.2c1.3 0.6 1.3 0.6 2.6 1.3q0 1.3 0 2.7c-1.4 0-1.4 0-2.8 0q-13.3 0.5-26.6 0.9-6.8 0.3-13.7 0.5-7.8 0.2-15.7 0.5-2.4 0.1-4.9 0.2c-9.9 0.3-19.7 0.9-29.6 1.9q-0.7 1.9-1.3 4 1.9 0.6 4 1.3c-1.4 1.7-2.7 3.5-4 5.3q-3.1-2.9-6-5.9-1.7-1.6-3.4-3.3c-2.6-2.8-2.6-2.8-2.6-4.1 34.6-1.6 69.2-3.2 104-2.7q0-1.3 0-2.6z"/><path class="w" d="m167.1 37.8q2.7 0 5.4 0 0.4 3.9 0.8 7.9 0.2 2.1 0.5 4.4 0 1.8 0 3.7-1.3 1.3-2.7 2.7c-0.8 3.4-0.8 3.4-1.3 6.7-2.2 0-4.4 0-6.7 0-1.3 3.3-1.3 3.3-2.6 6.6q-1.3-1.3-2.7-2.6c0-2.9 0-2.9 0.5-6.2q0.2-1.6 0.5-3.3 0.1-1.3 0.3-2.5c2.2 1.3 4.4 2.6 6.7 4q0.7-2 1.3-4-0.6-1.4-1.3-2.7-2 0.6-4 1.3c-0.2-3.8-0.2-3.8 0-8q2-1.3 4-2.6c1-2.8 1-2.8 1.3-5.4z"/><path class="x" d="m268.5 117.8c7.2 10.9 7 24.6 6.7 37.3-0.1 7.1 0.5 14.2 1.1 21.3 0.2 4.1 0.2 4.1-1.1 9.4-4.9 0-9.7 0-14.7 0q-1.3-2.6-2.7-5.3c5.3 1.3 10.6 2.6 16 4q-0.2-1.8-0.5-3.7c-1.6-11.7-2.6-23.4-3-35.2-0.2-5.8-0.8-11.4-1.8-17.1-0.2-3.6-0.1-7.1 0-10.7z"/><path class="y" d="m277.8 20.5c11 0.9 22 1.7 33.4 2.7q0 1.3 0 2.6-15.5 0.6-31 1.2-5.3 0.1-10.6 0.3c-20.4 0.8-40.7 1.4-61.1 1.2q0-0.7 0-1.3 2.5-0.2 5.2-0.3 9.6-0.4 19.2-0.8 4.1-0.2 8.3-0.4 6-0.2 12-0.5 1.8-0.1 3.7-0.2c7.4-0.3 14.8-0.9 22.3-1.8-0.7-1.4-0.7-1.4-1.4-2.7z"/><path class="z" d="m197.8 25.8q0 1.3 0 2.7c2.7 0 5.3 0 8 0 0.9 2.2 1.8 4.4 2.7 6.7q-1.6-0.4-3.1-0.8c-8.5-1.8-14.1-2.6-21.7 1.9-2.1 1.5-2.1 1.5-3.2 4.2-2.6-0.4-2.6-0.4-5.4-1.3q-0.6-2-1.3-4 2 0 4 0 0-1.4 0-2.7 1.3 0 2.7 0 0-1.3 0-2.7c6.1-2.9 10.3-4.5 17.3-4z"/><path class="A" d="m360.5 419.2q2 0 4 0-0.9 3.3-1.8 6.6c-0.5 1.8-0.5 1.8-1.1 3.7-1.1 3-1.1 3-3.8 4.4q-2 3.3-4 6.6-1.3 2-2.6 4-1.3 0-2.7 0c0 2.2 0 4.4 0 6.7q-1.3-1.3-2.7-2.7c0.2-5.6 4.2-8.2 8-12q0.7-1.9 1.4-4c-3.5 0.5-7.1 0.9-10.7 1.4-0.4 3.5-0.9 7-1.3 10.6q-2 0.7-4 1.4c-0.9-3-0.9-3-1.4-6.7 2.8-4.9 6.8-9.4 11.9-11.9 2.5-0.7 2.5-0.7 6.8-1.4q2-0.7 4-1.4 0-2.6 0-5.3z"/><path class="B" d="m385.8 199.2c4.2 4.1 5.1 9.2 6.9 14.7q0.5 1.7 1.1 3.3c2.1 6.7 3.1 12.4 2.7 19.4-0.1 2.9-0.1 2.9 1.3 6.6q0.3 3.3 0.3 6.6 0 1.8 0.1 3.5c-0.4 3.2-0.4 3.2-3 7.2q-0.1-2-0.3-4-0.1-2.6-0.3-5.2-0.2-2.6-0.3-5.2c0-4.1 0-4.1-1.8-5.6q-0.4-3.8-0.6-7.6c-0.4-5.8-0.9-11-3.4-16.4q-1.3-0.6-2.7-1.3c0-5.3 0-10.6 0-16z"/><path class="C" d="m159.1 44.5q0.7 0 1.4 0c0 2.6 0 5.3 0 8q-1.3 0-2.7 0 0 1.3 0 2.7-1.3 0-2.7 0 0.1 1.7 0.1 3.6c0.2 12.8-0.9 25-2.7 37.7q-2.7 0-5.4 0 0.7 2 1.4 4 1.3 0 2.6 0 0 2 0 4-1.2 0.2-2.5 0.3c-3 0.8-3 0.8-4.5 3.8q-0.5 1.3-1 2.6-1.3 0-2.6 0 0.8-3 1.6-6 0.5-1.7 1-3.4c1.1-3.3 2.4-5.7 4.1-8.7 4.3-8.4 4.2-17.9 5-27.1 0.8-8.6 2-14.4 6.9-21.5z"/><path class="D" d="m115.1 164.5q0.7 0 1.4 0c-0.5 5.7-0.9 11.4-1.4 17.3q-1.9 0.7-4 1.4c-2.7 5.4-1.3 11.6 0 17.3q-1.3-0.6-2.6-1.3-0.1 2.3-0.2 4.6-0.2 3-0.3 6-0.1 1.5-0.2 3c-0.1 2.6-0.4 5.2-0.7 7.7-1.3 0.7-1.3 0.7-2.6 1.3-2-18.6-1.1-31.2 7.5-48.3 1.5-3.1 2.5-5.6 3.1-9z"/><path class="E" d="m217.8 161.8c10.1 1.3 18.4 6.5 26.7 12 4.3 1.7 4.3 1.7 8 2.7-5.3 1.5-10.6 2-16 2.7q0 1.3 0 2.6-2.6 0-5.3 0 0-1.3 0-2.6-1.4 0-2.7 0 0-2 0-4c2.2 0.4 4.4 0.9 6.7 1.3q0-1.3 0-2.7-2 0-4 0c-0.9-2.2-1.8-4.4-2.7-6.6q-2.6 0-5.3 0 0-1.3 0-2.7-2.7-1.3-5.4-2.7z"/><path class="F" d="m207.2 43.2q0 1.3 0 2.6 0.9 0.9 2 1.8c2.7 3 2 4.9 2 8.9 1.2 3 1.2 3 2.6 5.3-2.2 1.8-4.4 3.5-6.6 5.4q-0.7-2.7-1.4-5.4-1.3 0-2.6 0c-1.4-6.1-2.7-12.3-4.1-18.6 5.4-1.4 5.4-1.4 8.1 0z"/><path class="G" d="m246.9 13.8c2.1 0.2 2.1 0.2 4.3 0.4q2.2 0.2 4.4 0.4c3.6 0.6 3.6 0.6 4.9 1.9q5.4 0.5 10.7 0.7c1.6 0.1 1.6 0.1 3.1 0.2q3.8 0.2 7.5 0.4-0.6 1.3-1.3 2.7-2.5 0-5 0-9.2-0.1-18.4-0.1-4 0-8 0-5.7 0-11.5 0-1.7-0.1-3.5-0.1c-6.5 0-12.6 0.4-18.9 1.5 1.3-2.6 1.3-2.6 3.4-3.4 5.9-1 11.8-1.1 17.7-1.4 5-0.6 5.6-3.2 10.6-3.2z"/><path class="H" d="m384.5 283.2q2 1.3 4 2.7c0.4 2.6 0.8 5.2 1 7.8 0.5 3.8 1.7 7.2 3 10.8 1.7 5.8 0.9 9.1-1.3 14.7q-1.3-0.7-2.7-1.3 0.1-2.5 0.2-5c0-4.4 0-4.4-1.5-8.4-2.2-4.3-1.5-8.5-1.4-13.3q-1.9 0-4 0-0.6 1.3-1.3 2.7 0.5-4.7 1.3-9.4 1.4-0.6 2.7-1.3z"/><path class="I" d="m163.1 61.8c2.8 0.6 2.8 0.6 5.4 1.4q-0.1 1-0.3 2.2c-2.2 19.5-2.2 19.5-2.4 39.1-7.1-7.1-4.1-27.5-4.2-37.5 0.2-3.8 0.2-3.8 1.5-5.2z"/><path class="J" d="m231.2 51.2c5.7 0 11.4 0 17.3 0q0.6 1.9 1.3 4c4-0.2 4-0.2 8-0.3 2.7 0.3 2.7 0.3 6.7 2.9q0 2 0 4 1.3 0 2.7 0 0 1.3 0 2.7c-7.3-1.3-13.4-3.1-19.9-6.7-5.1-2.4-10.6-3.8-16.1-5.3q0-0.7 0-1.3z"/><path class="K" d="m380.5 371.2c1.8 5.3 0.1 8.8-1.6 13.9q-0.4 1.4-0.9 2.9-1 2.9-1.9 5.8-1.2 3.7-2.4 7.5c-2.1 6.9-3.9 12.6-9.2 17.9 0.7-4 0.7-4 1.3-8q1.4 0 2.7 0-0.1-2-0.2-4.2c0.2-5.6 1.7-8.2 4.2-13.1 1-5 1-5 1.3-9.4q1.4 0 2.7 0c0-2.6 0-5.2 0-8q1.3 0 2.7 0 0.6-2.6 1.3-5.3z"/><path class="L" d="m188.5 145.8c10.3 3.8 21.4 8.1 29.3 16q-3.1 0.5-6.3 0.9-1.8 0.2-3.6 0.4c-3.7 0.1-5.6-0.7-8.8-2.6q0-1.3 0-2.7-2.6-1.3-5.3-2.6 2.6-0.7 5.3-1.4c-2.6-0.8-5.2-1.7-8-2.6q0-1.3 0-2.7-1.3 0-2.6 0 0-1.3 0-2.7z"/><path class="M" d="m109.8 288.5q2 0.7 4 1.4-0.1 2.1-0.2 4.4c-0.2 5-0.2 5 2.9 8.9q1.3 0 2.6 0c1.2 9.4 1.5 18.6 1.4 28-2.8-4.2-3.6-7.1-4.6-12-1.5-7-3.3-13.9-5.4-20.8-0.7-3.4-0.8-6.4-0.7-9.9z"/><path class="N" d="m243.2 73.8c3 0 6.1 0 9.3 0q-0.7 2.7-1.3 5.4 1.1 0.1 2.4 0.2c4.1 1.5 4.8 4 6.9 7.8q1.3 0.6 2.7 1.3 1.4 4.6 2.6 9.3 0.7 0.7 1.4 1.4 0 4 0 8c-3.1-3.8-5.2-7.6-7.2-12-2.7-5.5-5.6-9.2-10.2-13.4-2.3-2.6-4.4-5.3-6.6-8z"/><path class="O" d="m255.2 20.5c0.6 1.3 0.6 1.3 1.3 2.7q-2.6-0.7-5.3-1.4 0 1.3 0 2.7c-13 1.4-25.7 1.5-38.7 1.3 4.8-3.2 9-3.6 14.6-4.1q1.5-0.2 3-0.4c8.4-0.9 16.7-1.1 25.1-0.8z"/><path class="P" d="m397.8 247.2q0.7 0 1.4 0 0 8.9 0.1 17.8 0 3 0 6 0 4.4 0 8.7 0 2.6 0 5.3c-0.1 4.4-0.7 8.5-1.5 12.9q0.4 2 0.8 4c0.7 4.6-0.2 6.5-2.1 10.6q-0.8 4-1.3 8-0.7 0-1.4 0c-0.2-10.7 0.5-21.3 1.4-32q1.3 0 2.6 0c0-13.6 0-27.3 0-41.3z"/><path class="Q" d="m113.8 248.5q2 0 4 0c-0.6 7.4-1.7 14.2-4 21.4q-1.3 0-2.7 0-0.6 2.6-1.3 5.3 2 0 4 0c-0.4 2.6-0.4 2.6-1.3 5.3q-2 0.7-4 1.4c0-7.1 0-14.1 0-21.4q2.6-0.6 5.3-1.3c0-3.5 0-7.1 0-10.7z"/><path class="R" d="m131.1 140.5c2.7 2.2 3.9 3.4 4.6 6.9q0 1.5-0.1 3.1 0.1 1.5 0.1 3.1c-0.7 3.6-1.6 4.8-4.6 6.9-3.6 0.5-6.9 0.2-10.6 0q0.8-0.9 1.7-1.9c1.1-1.2 1.1-1.2 2.3-2.4q1.1-1.2 2.2-2.5c2.3-2.7 2.3-2.7 1.8-7.9q1.3-0.6 2.6-1.3 0-2 0-4z"/><path class="S" d="m255.2 177.8q1.3 2.7 2.6 5.4-1.9 0.6-4 1.3 0-1.3 0-2.7-1.9 0-4 0 0 1.4 0 2.7-2.6 0-5.3 0 0 1.3 0 2.7c-4.4 0.9-8.8 1.7-13.3 2.6q0-1.3 0-2.6c2.4-2 2.4-2 5.7-4.1q1.6-1.1 3.2-2.1c5.2-3.1 9.2-3.3 15.1-3.2z"/><path class="T" d="m197.8 407.2c3.2 2.4 3.2 2.4 5.4 5.3-0.4 3-0.4 3-1.4 5.4q-2.6-0.7-5.3-1.4 0-1.3 0-2.6c-4-0.5-7.9-0.9-12-1.4q0-1.9 0-4c5-2.4 8-3.2 13.3-1.3z"/><path class="U" d="m208.5 31.2q2.3 1.9 4.6 3.8c1.2 1.1 1.2 1.1 2.5 2.1 2.2 2.1 2.2 2.1 3.6 4.7q-2.7-0.6-5.4-1.3 0 1.3 0 2.7 2 0.6 4 1.3-0.6 2.6-1.3 5.3c-4.9-4.8-9.7-9.7-14.7-14.6q1.3-0.7 2.7-1.4 2 0.7 4 1.4 0-2 0-4z"/><path class="V" d="m271.2 163.2q0.6 0 1.3 0c1.2 7.2 1.5 14 1.3 21.3-11.5-0.5-19.8-4.3-29.3-10.7 7.2 0.5 11.6 0.9 17.3 5.4 3.6 0.7 7 1 10.7 1.3-0.3-1.3-0.3-1.3-0.7-2.7-0.8-4.9-0.7-9.6-0.6-14.6z"/><path class="W" d="m195.1 55.2c7.1 5.1 10.5 8.6 12.1 17.3q-1.4 0-2.7 0-1.3 2.6-2.7 5.3c-3.3-7.5-5.9-14.4-6.7-22.6z"/><path class="X" d="m272.5 68.5q1.4 0.8 2.8 1.7 6.1 3.6 12.3 7.2 2.1 1.2 4.3 2.5 1.6 1 3.3 1.9c-3.9 1.3-6.3 1.5-10.3 1.4-1.6 0-1.6 0-3.3 0-1.2 0-1.2 0-2.4 0 0.4-2.2 0.8-4.4 1.3-6.7-2.2-0.4-4.4-0.9-6.7-1.3-0.4-2.2-0.9-4.4-1.3-6.7zm-1.3 6.7c2.6 1.3 2.6 1.3 2.6 1.3z"/><path class="Y" d="m372.5 167.2c8.4 9.8 10.7 19.6 13.3 32q-1.3 0-2.6 0c-2.7-4.6-4.2-8.3-4.6-13.5-0.9-5.9-2-6.6-6.1-10.5-0.3-4.4-0.3-4.4 0-8z"/><path class="Z" d="m295.2 83.2c9.9 5.5 19.2 11.3 28 18.6-1.4 0.7-1.4 0.7-2.7 1.4q-2-0.7-4-1.4 0-1.3 0-2.6c-2.6 0-5.3 0-8 0q0-2.7 0-5.4-1.3 0-2.7 0 0-1.3 0-2.6c-3 0-6.1 0-9.3 0-1.4-2.5-1.4-2.5-2.7-5.4q0.7-1.3 1.4-2.6z"/><path class="a0" d="m128.5 139.2c1.2 4.1 1.7 7.7 1.3 12-2.2 3.3-3.7 3.9-7.6 4.9-1.5 0.2-1.5 0.2-3.1 0.4 0 2.2 0 4.4 0 6.7q-1.3 0.6-2.6 1.3c0.2-8.4 3.5-13.1 8.5-19.8 2.2-2.7 2.2-2.7 3.5-5.5z"/><path class="a1" d="m217.8 103.2q1.3 0 2.7 0 0 2.6 0 5.3 2 0.7 4 1.3c3.6 4 6.3 6.9 8 12-1.3 2.9-1.3 2.9-2.7 5.4-0.5-1.2-0.5-1.2-1.1-2.5-1.3-2.9-1.3-2.9-3.4-4.6-2.7-2.8-4.1-5.7-5.7-9.2q-0.9-1.8-1.8-3.6-0.6-1.4-1.3-2.8 0.6-0.7 1.3-1.3z"/><path class="a2" d="m135.1 343.2q1.4 0 2.7 0 1.1 3.5 2.1 7 0.6 1.9 1.2 3.9c0.7 3.7 0.6 5.6-0.6 9.1q0-1.3 0-2.7-1.2-0.1-2.4-0.2c-4.1-1.5-5.7-4.2-8.3-7.8q0.7-1.3 1.3-2.6 2 0 4 0c0-2.2 0-4.4 0-6.7z"/><path class="a3" d="m189.8 159.2c9 0.3 15.1 1.6 22.7 6.6q0 1.4 0 2.7-2 0-4 0 0-1.3 0-2.7c-1.4 0.1-1.4 0.1-2.7 0.2q-1.8 0-3.6 0.1c-1.8 0.1-1.8 0.1-3.6 0.1-4.1-0.4-5.9-1.5-8.8-4.4q0-1.3 0-2.6z"/><path class="a4" d="m177.8 133.8c3.4 2.9 6 5.4 8 9.4q-1.8-0.1-3.6-0.1c-3.9 0.1-7.3 0.5-11.1 1.4 0.5-3.1 0.9-6.2 1.4-9.3 2.2-1.1 2.2-1.1 5.3-1.4z"/><path class="a5" d="m167.1 37.8c-0.5 3.3-0.5 3.3-1.3 6.7-1.3 0.6-1.3 0.6-2.7 1.3-0.8 4.1-0.8 4.1-1.3 8q2.6-1.3 5.3-2.6c0.5 2.2 0.9 4.4 1.4 6.6q-2 1.3-4 2.7c-3.2-3-5.3-5.2-5.6-9.7 0.8-8 0.8-8 3.5-11.3 2.1-1.7 2.1-1.7 4.7-1.7z"/><path class="a6" d="m176.5 409.9q1.3 0 2.6 0 1.4 1.9 2.7 4c2.8 0.9 2.8 0.9 5.3 1.3q0 2 0 4 2 0 4 0c5.4 5.6 5.4 5.6 5.4 10.7-5.1-2.1-8.4-5.4-12.3-9.3q-1.7-1.7-3.5-3.5c-2.9-3.2-2.9-3.2-4.2-7.2z"/><path class="a7" d="m139.1 111.2c1.2 4.1 1.4 6.5 0 10.6q2-0.6 4-1.3-0.6 2.6-1.3 5.3-2 0-4 0c-1.8 4.4-3.5 8.8-5.3 13.4q-1.3 0-2.7 0c2.7-9.5 5.9-18.8 9.3-28z"/><path class="a8" d="m159.1 44.5q0.7 0 1.4 0c0 2.6 0 5.3 0 8q-1.3 0-2.7 0 0 1.3 0 2.7-1.3 0-2.7 0 0.1 2 0.1 4.1 0 2.7 0 5.4 0 1.3 0.1 2.6c0 5.5-0.4 10.5-1.5 15.9q-1.3 0-2.7 0 0.5-7.1 1-14.1c0.2-2 0.2-2 0.3-4 0.7-8.3 2-13.8 6.7-20.6z"/><path class="a9" d="m212.5 100.5c2.6 4 5.1 8 7.6 12.1q1.2 2.1 2.6 4.3 0.9 1.8 1.8 3.6-0.7 1.3-1.3 2.7c-3-2.8-4.1-4-5.4-8q-2 1.9-4 4c-2.5-5.2-2.7-7.9-1.3-13.4q0-2.6 0-5.3z"/><path class="aa" d="m249.8 452.5c7.1 0.9 14.1 1.8 21.4 2.7q0 2 0 4c-8.2 0.1-8.2 0.1-10.7 0q-0.7-0.6-1.3-1.3-4.7-0.8-9.4-1.4 0-1.9 0-4z"/><path class="ab" d="m175.1 387.2q2.7 0 5.4 0c3.4 5.2 2.8 10 2.6 16q-2.6 0-5.3 0-0.1-1.2-0.2-2.5-0.2-1.6-0.4-3.2-0.1-1.6-0.3-3.3c-0.4-3.2-0.4-3.2-1.8-7z"/><path class="ac" d="m360.5 145.8q2.7 3.4 5.3 6.7 1.1 1.2 2.2 2.5c2.5 3.8 3.4 7.8 4.5 12.2q-2 0-4 0c0-2.7 0-5.3 0-8q-1.3 0-2.7 0 0-2 0-4c-3 0.4-6.1 0.9-9.3 1.3q0.6-1.5 1.3-3.1 1.4-3.7 2.7-7.6z"/><path class="ad" d="m275.2 149.8q1.3 0 2.6 0c2.9 7.4 3.9 13.7 1.4 21.3-0.7 1.4-0.7 1.4-1.4 2.7q-1.3 0-2.6 0c0-7.9 0-15.8 0-24z"/><path class="ae" d="m291.2 477.9c3.1 0.2 3.1 0.2 6.6 1.3 1.8 3.4 1.8 3.4 2.7 6.7 3.1-0.9 6.2-1.8 9.3-2.7 0.5 3.5 0.9 7.1 1.4 10.7-16.2-8.3-16.2-8.3-20-16z"/><path class="af" d="m216.5 425.9q1.3 0 2.7 0c2.3 2.5 2.3 2.5 4.9 5.7q1.3 1.6 2.6 3.3 0.9 1.4 1.8 3-0.7 1.9-1.3 4c-4.3-1.3-6.4-2.2-9.1-5.8-1.7-3.7-2-6.2-1.6-10.2z"/><path class="ag" d="m184.5 397.9q1.3 1.9 2.6 4c-1.3 4-1.3 4-4.4 6.3-3.6 1.7-3.6 1.7-6.4 1.6-2.5-1.3-2.5-1.3-6.5-6.6 4.4 0 8.8 0 13.3 0q0.7-2.6 1.4-5.3z"/><path class="ah" d="m188.5 28.5q0 1.3 0 2.7-1.3 0-2.7 0c-0.2 1.1-0.2 1.1-0.4 2.4-1.1 3.4-2 4.8-4.9 6.9-2.9-0.2-2.9-0.2-5.4-1.3q-0.6-2-1.3-4 2 0 4 0 0-1.4 0-2.7 1.3 0 2.7 0 0-1.3 0-2.7c4-1.3 4-1.3 8-1.3z"/><path class="ai" d="m227.2 453.9c7.5 0.6 13 2.2 20 5.3q5.2 1.6 10.6 3c2.7 1 2.7 1 4 3.7-8.1-0.8-15-3.2-22.6-6.1q-1.7-0.7-3.5-1.3-4.3-1.7-8.5-3.3 0-0.6 0-1.3z"/><path class="aj" d="m235.2 159.2q0.6 1.3 1.3 2.6 1.3 0.7 2.7 1.4-0.7 2.6-1.4 5.3 1.3 0.6 2.6 1.2c2.8 1.5 2.8 1.5 4.1 4.1q-4-1.9-8-4c-4.8-2.4-9.6-4.7-14.7-6.6 4.1-1.2 7.8-1.5 12-1.4q0.7-1.3 1.4-2.6z"/><path class="ak" d="m120.5 331.2c6.5 2.5 6.5 2.5 8 4q0.4 3.7 0.7 7.4c0.2 2 0.2 2 0.4 4.1q0.1 1.6 0.2 3.2c-9.3-12.2-9.3-12.2-9.3-18.7z"/><path class="al" d="m173.8 55.2c2.9 7.7 0.5 15.4-2.7 22.6q-1.3 2.7-2.6 5.4c-1.8-4.9-0.9-8.3 0.4-13.3q0.5-2 1.1-4.1c1.1-3.7 2.3-7.1 3.8-10.6z"/><path class="am" d="m336.5 41.8c2.8 0.6 2.8 0.6 5.3 1.4q-5.1 2.6-10.2 5.2c-1.5 0.8-1.5 0.8-2.9 1.5-5 2.5-9.3 4.6-14.9 5.3q0-1.4 0-2.7 1.7-0.7 3.3-1.4 2.2-0.9 4.4-1.8c2.1-0.9 2.1-0.9 4.3-1.8 5.8-2.2 5.8-2.2 10.7-5.7z"/><path class="an" d="m255.2 63.2q1.9 1.3 4 2.6 0 1.3 0 2.7c-3.6 0.4-7.1 0.9-10.7 1.3-0.9-2.2-1.8-4.4-2.7-6.6 3.6-1.9 5.5-1.1 9.4 0z"/><path class="ao" d="m357.8 432.5c1.4 4 1.4 4-0.3 8.7-2 4-3.1 5.9-6.3 8.7q-2.1 2.6-4 5.3c0.4-3.5 0.9-7 1.3-10.7q1.3 0 2.7 0c0.5-1.1 0.5-1.1 1.1-2.2 1.7-3.4 3.6-6.5 5.5-9.8z"/><path class="ap" d="m245.8 140.5q1.3 0 2.7 0 0 1.3 0 2.7 1.3 0 2.7 0c1.7 3.5 3.5 7 5.3 10.6-4 2.7-4 2.7-8 2.7q0-1.3 0-2.7-2-0.6-4-1.3 0.6-2 1.3-4c2 1.3 2 1.3 4 2.7q0 1.3 0 2.6 1.3 0 2.7 0c-2.2-4.4-4.4-8.8-6.7-13.3z"/><path class="aq" d="m261.8 465.9c4.4 0 8.8 0 13.4 0q0.6 2.6 1.3 5.3c4.4 0.9 8.8 1.8 13.3 2.7q0.7 2 1.4 4c-12.8-3.4-12.8-3.4-18.5-6.9-3.8-2.2-6.5-3.3-10.9-3.8q0-0.6 0-1.3z"/><path class="ar" d="m393.8 247.2c2.9 5.6 4.2 9.9 4.1 16.2q0 1.8 0 3.7 0 1.3-0.1 2.8-1.9 0-4 0c-1.8-7.7-0.9-15 0-22.7z"/><path class="as" d="m120.5 248.5c0.7 2.6 0.7 2.6 1.3 5.3q-0.7 0.7-1.3 1.4-0.4 2.9-0.7 5.9c-0.5 5.8-0.5 5.8-2 8.8q-1.3 0-2.7 0c-0.3-8.4 0.7-14.4 5.4-21.4z"/><path class="at" d="m115.1 164.5q0.7 0 1.4 0c-0.5 5.7-0.9 11.4-1.4 17.3q-1.9 0.7-4 1.4c-1.6 3.3-1.6 3.3-2.6 6.6-1.5-3.6-1.4-5.1-0.1-8.8q0.9-1.9 1.9-3.8c2.1-4.2 3.9-8.1 4.8-12.7z"/><path class="au" d="m179.1 133.8c3.3 0.7 3.3 0.7 6.7 1.4q0 2.6 0 5.3 2.6 0 5.3 0 0 2.6 0 5.3c2.2 0.5 4.4 0.9 6.7 1.4q0 1.3 0 2.6c-8.9-1.5-13.4-7.8-18.7-14.6q0-0.7 0-1.4z"/><path class="av" d="m196.5 64.5c3.1 4.7 5.3 9.6 7.6 14.7q0.6 1.5 1.3 3c1.1 2.5 2.1 5.1 3.1 7.6q-0.7 1.3-1.3 2.7c-3.5-4.1-4-5-4-10.7q-1.4 0-2.7 0 0-1.9 0-4-1.3 0-2.7 0c-0.4-4.4-0.9-8.8-1.3-13.3z"/><path class="aw" d="m251.2 59.2c1.1 0.4 1.1 0.4 2.3 0.8 6.3 2.2 12.3 3.8 19 4.5q0 2 0 4c-2.6 0-5.3 0-8 0q0-1.3 0-2.7-2.2-0.2-4.4-0.5c-4.9-0.8-4.9-0.8-8.9-3.5q0-1.3 0-2.6z"/><path class="ax" d="m213.8 40.5c3.9 0.8 3.9 0.8 8 2.7 1.9 4.1 1.9 4.1 2.7 8q-2.6 0.6-5.3 1.3-0.6-1.9-1.2-3.9c-1-4.3-1-4.3-4.2-5.4q0-1.4 0-2.7z"/><path class="ay" d="m116.5 303.2q1.3 0 2.6 0c1.2 9.4 1.5 18.6 1.4 28-3.3-5-3-7.7-2.9-13.6q0.1-2.5 0.1-5.1 0.1-2 0.1-4-1.3 0-2.7 0 0.7-2.6 1.4-5.3z"/><path class="az" d="m217.8 448.5c3.1 0.5 6.2 0.9 9.4 1.4q0 1.3 0 2.6c2.6-0.4 2.6-0.4 5.3-1.3q0.6-1.3 1.3-2.7c2.2 0 4.4 0 6.7 0q0 1.4 0 2.7-2.6 0-5.3 0 0 2 0 4-3.3-0.5-6.5-1.1-1.7-0.3-3.6-0.6c-3.5-1-5-2.1-7.3-5z"/><path class="aA" d="m355.2 435.2c-2.7 3.1-5.3 6.2-8 9.3q-1.3-1.3-2.7-2.6c0.3-3.4 0.3-3.4 1.3-6.7 3.6-1.8 5.6-0.9 9.4 0z"/><path class="aB" d="m212.5 80.5c5.3 6.2 5.3 6.2 5.3 10.7-3.3-1.4-3.3-1.4-6.6-2.7q-0.7 2.6-1.4 5.3c-2.1-3.1-2.1-3.1-4-6.6q0.7-2 1.4-4 0.6 1.3 1.3 2.6 1.3 0 2.7 0 0.6-2.6 1.3-5.3z"/><path class="aC" d="m188.5 145.8c14.3 5.2 14.3 5.2 18.7 10.7-4.4 0-8.9 0-13.4 0q2.6-1.3 5.3-2.7c-2.6-0.8-5.2-1.7-8-2.6q0-1.3 0-2.7-1.3 0-2.6 0 0-1.3 0-2.7z"/><path class="aD" d="m223.2 45.8q4 2.6 8 5.4 0 0.6 0 1.3c-2.2 0-4.4 0-6.7 0 1.1 2.9 1.1 2.9 4 3.9 2.7 1.4 2.7 1.4 4 5.4-5.9-1.8-8.5-4.3-12-9.3q1.3-0.7 2.7-1.3 0-2.7 0-5.4z"/><path class="aE" d="m199.1 32.5c3.1 2.7 3.1 2.7 5.4 5.3q-1.4-0.1-2.7-0.3-1.8-0.2-3.7-0.4-1.7-0.2-3.5-0.5c-3.3-0.1-5.7 0.2-8.8 1.2 1.3-4 1.3-4 3.7-5.6 3.9-1.3 5.8-1.1 9.6 0.3z"/><path class="aF" d="m272.5 68.5q-1.3 2.7-2.7 5.3-1.3 0-2.6 0 0 1.3 0 2.7-2 0-4 0c-2.3-3.3-2.3-3.3-4-6.7 4.5-0.8 8.6-1.3 13.3-1.3z"/><path class="aG" d="m247.2 176.5q0 1.3 0 2.7c-9.8 6.1-9.8 6.1-16 5.3q0-1.3 0-2.7 2.6 0 5.3 0 0-1.3 0-2.6c4.1-2.4 5.6-2.7 10.7-2.7z"/><path class="aH" d="m277.8 133.8q2 0.7 4 1.4c0 3.9 0 7.9 0 12q-1.9 0-4 0-0.4-3-0.7-5.9-0.2-1.7-0.4-3.4-0.1-1.3-0.2-2.7 0.7-0.7 1.3-1.4z"/><path class="aI" d="m212.5 77.8q2 0 4 0c0.2 1.3 0.2 1.3 0.5 2.6 0.4 1.4 0.4 1.4 0.8 2.8q1.3 0.6 2.7 1.3c0.8 3 0.8 3 1.5 6.7q0.3 1.9 0.7 3.8 0.2 1.4 0.5 2.8c-2.9-3.7-5.4-7.4-7.6-11.5q-0.9-1.5-1.8-3.1c-1.3-2.7-1.3-2.7-1.3-5.4z"/><path class="aJ" d="m203.2 435.2c3.5-0.1 3.5-0.1 8 1.3 2.7 3.8 4.7 7.8 6.6 12-4.2-1.8-7.1-4.1-10.3-7.4q-1.2-1.2-2.5-2.5c-1.8-2.1-1.8-2.1-1.8-3.4z"/><path class="aK" d="m241.8 136.5c4.9 4.4 7.7 8.9 10.7 14.7q0 1.3 0 2.6-1.3 0-2.7 0 0-1.3 0-2.6-2.6-1.3-5.3-2.7 0.6-2.6 1.3-5.3-1.3 0-2.6 0c-0.5-2.2-0.9-4.4-1.4-6.7z"/><path class="aL" d="m235.2 120.5c2.7 2.7 3.5 4.3 4.9 7.8q0.5 1.4 1.1 2.8c0.7 3.1 0.3 5-0.7 8.1q0-2 0-4-1.3 0-2.7 0c-3.6-5.4-2.9-8.4-2.6-14.7z"/><path class="aM" d="m252.5 83.2c6.4 5.4 8.5 10.6 10.7 18.6q-1.4 0-2.7 0c-4.9-5.2-6.4-11.8-8-18.6z"/><path class="aN" d="m193.8 53.8c4 0.7 4 0.7 8 1.4 0.5 2.2 0.9 4.4 1.4 6.6-2.2-1.7-4.5-3.5-6.7-5.3 0 2.2 0 4.4 0 6.7q-2-1.4-4-2.7c0.4-2.2 0.9-4.4 1.3-6.7z"/><path class="aO" d="m211.2 15.2q1.3 0.6 2.6 1.3c-2 2-2 2-4 4q2.6 1.3 5.4 2.7c-5.2 1.5-9.3 2.6-14.7 2.6q0-1.3 0-2.6 3.9-2.8 8-5.4 1.3-1.3 2.7-2.6z"/><path class="aP" d="m160.5 389.9c2.2 0 4.4 0 6.6 0 2.2 4.6 3 8.2 2.7 13.3-4.4-4-6.9-7.9-9.3-13.3z"/><path class="aQ" d="m136.5 124.5c5 5 4.9 10.6 5.3 17.3q-2-0.6-4-1.3c-1.3-3.8-1.5-6.3-1.4-10.3q0-1.6 0-3.2 0.1-1.2 0.1-2.5z"/><path class="aR" d="m243.2 73.8c3 0 6.1 0 9.3 0q-0.7 2.7-1.3 5.4 1.9 0.6 4 1.3-0.7 2-1.4 4-2.6-2.3-5.3-4.6-1.5-1.3-3-2.6-1.2-1-2.3-2.1 0-0.7 0-1.4z"/><path class="aS" d="m184.5 37.8c1.8 3.6 0.9 5.6 0 9.4q-1.3 0-2.7 0 0 2.6 0 5.3c-2.2 0.9-4.4 1.7-6.7 2.7 2-4 4.1-7.9 6.2-11.7q0.9-1.6 1.8-3.2 0.7-1.2 1.4-2.5z"/><path class="aT" d="m336.5 135.2q0.7 0 1.3 0c0 2.2 0 4.4 0 6.6q1.3 0 2.7 0 0 1.3 0 2.7 2.6 0 5.3 0 0 1.3 0 2.7-1.9 0.6-4 1.3c-4.3-2.9-6.3-4.4-8-9.3q1.3-2 2.7-4z"/><path class="aU" d="m277.8 468.5c10.7-0.8 10.7-0.8 16.1 2.5 2.6 2.9 2.6 2.9 2.6 5.5q-2 0-4 0 0-1.9 0-4-1.4-0.1-2.9-0.2-1.8-0.1-3.7-0.3-1.8-0.1-3.7-0.2c-1.5-0.3-1.5-0.3-3-0.6q-0.7-1.3-1.4-2.7z"/><path class="aV" d="m383.2 215.2q0.6 0 1.3 0-0.2 3.6-0.5 7.2-0.1 2-0.3 4.1-0.2 1.7-0.5 3.3c-1.3 0.7-1.3 0.7-2.7 1.4q-0.1-3.3-0.2-6.5 0-1.8-0.1-3.7c0.3-3.2 0.3-3.2 3-5.8z"/><path class="aW" d="m385.8 199.2c3.5 3.4 3.2 5.3 3.5 10.1q0.2 2 0.3 4.1 0.1 1.5 0.2 3.1-1.9-0.6-4-1.3c0-5.3 0-10.6 0-16z"/><path class="aX" d="m379.2 183.2c4.4 4.8 5.3 9.7 6.6 16q-1.3 0-2.6 0c-3.2-5.7-4.5-9.5-4-16z"/><path class="aY" d="m327.2 112.5c-1.9 3.9-3.8 7.4-6.7 10.7q-2 0-4 0 0-2 0-4 1.3 0 2.7 0 0.6-2 1.3-4c4-2.7 4-2.7 6.7-2.7z"/><path class="aZ" d="m219.2 92.5c3.6 4.5 8 10 8 16q-2.7-0.7-5.4-1.3c0-2.7 0-5.3 0-8q-1.3 0-2.6 0c0-2.2 0-4.4 0-6.7z"/><path class="b0" d="m196.5 24.5q-3.8 1.7-7.7 3.4-2.1 0.9-4.3 1.9c-4 1.3-5.5 1.6-9.4 0 16.1-7.1 16.1-7.1 21.4-5.3z"/><path class="b1" d="m321.8 492.5c0 2.2 0 4.4 0 6.7-4.9-0.6-7.4-1.5-10.6-5.3 7.6-1.4 7.6-1.4 10.6-1.4z"/><path class="b2" d="m323.2 488.5q1.3 0.7 2.6 1.4 0.9 4.6 1.4 9.3-2.7 0-5.4 0-0.1-4.7 0-9.3 0.7-0.7 1.4-1.4z"/><path class="b3" d="m360.5 381.9q0.7 0 1.3 0c0.4 7.2 0.5 11.3-4 17.3-1.5-4.6-1-7.2 0.6-11.7q0.6-1.6 1.2-3.2 0.4-1.2 0.9-2.4z"/><path class="b4" d="m236.5 169.8q1 0.6 2 1.1c4.6 2.2 9.2 3.9 14 5.6-5.2 1.6-9.3 0.9-14.7 0-0.4-2.2-0.9-4.4-1.3-6.7z"/><path class="b5" d="m157.8 52.5q1.3 1.3 2.7 2.7c-0.5 3.5-0.5 3.5-1.4 6.6q-1.3 0-2.6 0c0 3.1 0 6.2 0 9.4q-0.7 0-1.4 0c0-5.3 0-10.6 0-16q1.4 0 2.7 0 0-1.4 0-2.7z"/><path class="b6" d="m128.5 139.2c1.2 3.4 1.5 4.8 0.1 8.3-0.7 1.2-0.7 1.2-1.5 2.3q-1.3-0.6-2.6-1.3 0 2 0 4-2 0.7-4 1.3c1.9-5.4 4.7-9.9 8-14.6z"/><path class="b7" d="m171.1 123.2c3.8 3.3 6 5.6 6.7 10.6-2.6 0-5.3 0-8 0q0-1.3 0-2.6 1.3 0 2.7 0c-0.5-2.7-0.9-5.3-1.4-8z"/><path class="b8" d="m159.1 44.5q0.7 0 1.4 0c0 2.6 0 5.3 0 8q-1.3 0-2.7 0 0 1.3 0 2.7-1.3 0-2.7 0c0 3 0 6.1 0 9.3q-0.6 0-1.3 0c-0.6-8.6 0.6-12.8 5.3-20z"/><path class="b9" d="m205.8 432.5c3.9 0.9 7.2 2.2 10.7 4q-0.7 2.7-1.3 5.4-2-1.3-4-2.7 0-1.3 0-2.7-2.7 0-5.4 0 0-1.9 0-4z"/><path class="ba" d="m389.8 269.9q2 0.6 4 1.3c-0.4 2.6-0.8 5.3-1.3 8q-2-0.7-4-1.3c-1.1-2.6-1.1-2.6-1.3-5.4q1.3-1.3 2.6-2.6z"/><path class="bb" d="m257.8 180.5c7.9 2 7.9 2 16 4q0.7-2 1.4-4 0 2.6 0 5.3c-4.9 0-9.7 0-14.7 0q-1.3-2.6-2.7-5.3z"/><path class="bc" d="m337.8 136.5q2 0 4 0c4 4.4 4 4.4 4 8q-2.6 0-5.3 0 0-1.3 0-2.7-1.3 0-2.7 0 0-2.6 0-5.3z"/><path class="bd" d="m224.5 123.2c4.1 3.7 6.2 6.7 8 12q-2.6 0-5.3 0c-0.9-4-1.8-8-2.7-12z"/><path class="be" d="m300.5 97.8q4 0.6 8 1.4-1.3 1.3-2.7 2.6-1.9 0-4 0 0 1.3 0 2.7-1.9 0-4 0c1.2-5.2 1.2-5.2 2.7-6.7z"/><path class="bf" d="m176.5 409.9q1.3 0 2.6 0 1.4 1.9 2.7 4c2.8 0.9 2.8 0.9 5.3 1.3 0 2.2 0 4.4 0 6.7q-2.3-1.9-4.5-3.8c-1.3-1-1.3-1-2.6-2.1-2.2-2.1-2.2-2.1-3.5-6.1z"/><path class="bg" d="m364.5 152.5c5.2 4.3 6.5 8.2 8 14.7q-2 0-4 0c0-2.7 0-5.3 0-8q-1.3 0-2.7 0c-0.4-2.2-0.8-4.4-1.3-6.7z"/><path class="bh" d="m235.2 136.5q1.3 0 2.6 0 0.7 1.3 1.4 2.7 1.9 0 4 0 0 1.9 0 4 1.3 0 2.6 0 0 1.9 0 4c-5-2-7.5-5-10.6-9.4q0-0.6 0-1.3z"/><path class="bi" d="m176.8 30.7q1.8 0.2 3.7 0.5c-1.3 0.6-1.3 0.6-2.7 1.3q0 1.3 0 2.7c-3.5 0.8-7 1.7-10.7 2.6 4.3-6.5 4.3-6.5 9.7-7.1z"/><path class="bj" d="m197.8 28.5c2.7 0 5.3 0 8 0 0.9 2.2 1.8 4.4 2.7 6.7-2.2-0.5-4.4-0.9-6.7-1.4q0-1.3 0-2.6-2-0.7-4-1.4 0-0.6 0-1.3z"/><path class="bk" d="m356.5 407.2q1.3 0 2.7 0c3.6 3.9 4 5 4 10.7-4-1.4-4-1.4-5.6-3.9-1.1-2.8-1.1-2.8-1.1-6.8z"/><path class="bl" d="m157.8 383.2c2.6 1 2.6 1 5.3 2.7 1 2.8 1 2.8 1.4 5.3-3.3-1.3-3.3-1.3-6.7-2.7q0-2.6 0-5.3z"/><path class="bm" d="m152.5 383.2q1.9 0 4 0 2.1 3.3 4 6.7c2.1 2.3 2.1 2.3 4 4q-0.7 1.3-1.4 2.6-2.6-2.5-5.3-5.1c-1.5-1.5-1.5-1.5-3-2.9-2.3-2.6-2.3-2.6-2.3-5.3z"/><path class="bn" d="m156.5 368.5q1.3 0 2.6 0c-0.7 4.5-1.4 6.8-4 10.7q-1.3 0-2.6 0c0.8-3.9 2.1-7.1 4-10.7z"/><path class="bo" d="m388.5 296.5c5.2 2.5 5.2 2.5 6.7 4q0.1 3.4 0 6.7-1.3 0-2.7 0c-4-7.7-4-7.7-4-10.7z"/><path class="bp" d="m351.2 24.5c2.6 4 2.6 4 2.4 7.4-1.1 3.3-1.1 3.3-5.1 5.9-0.8-2.5-0.8-2.5-1.3-5.3q1.3-1.3 2.6-2.7c0.9-2.7 0.9-2.7 1.4-5.3z"/><path class="bq" d="m255.2 20.5q0.6 1.3 1.3 2.7-2.6-0.7-5.3-1.4 0 1.3 0 2.7c-2.7 0-5.3 0-8 0q0-1.3 0-2.7c3.9-2 7.6-1.4 12-1.3z"/><path class="br" d="m256.5 80.5q2.6 0 5.3 0c0.5 2.6 0.9 5.3 1.4 8-2.6-1-2.6-1-5.4-2.7-1-2.8-1-2.8-1.3-5.3z"/><path class="bs" d="m261.8 465.9c4.4 0 8.8 0 13.4 0q0.6 1.9 1.3 4c-4.9-0.8-9.8-1.7-14.7-2.7q0-0.6 0-1.3z"/><path class="bt" d="m360.5 419.2q2 0 4 0c-1.3 4.4-2.6 8.8-4 13.3-2.7-5.3-2.7-5.3-2.7-8q1.4 0 2.7 0 0-2.6 0-5.3z"/><path class="bu" d="m384.5 345.9q1.3 0 2.7 0c0 2.6 0 5.2 0 8q-2 0.6-4 1.3-0.1-4 0-8 0.6-0.7 1.3-1.3z"/><path class="bv" d="m251.2 177.8c2.6 0.7 2.6 0.7 5.3 1.4q0 2.6 0 5.3-1.3 0-2.7 0 0-1.3 0-2.7-1.9 0-4 0 0.7-1.9 1.4-4z"/><path class="bw" d="m240.5 72.5c2.6 2.2 5.3 4.4 8 6.7-5 1.5-5 1.5-8 0 0-2.2 0-4.4 0-6.7z"/><path class="bx" d="m173.8 48.5q2.6 0.6 5.3 1.3-2.5 4.1-5.3 8-1.3 0-2.7 0-0.6 1.3-1.3 2.7c0.9-4.2 2.4-8 4-12z"/><path class="by" d="m220.5 41.8c3.9 0.7 3.9 0.7 8 1.4q0.3 1.2 0.6 2.5c0.6 2.8 0.6 2.8 2.1 5.5-5.1-2-7.5-5.1-10.7-9.4z"/><path class="bz" d="m184.5 35.2c0 5.1-1.9 8.6-4 13.3q-0.7 0-1.4 0c-0.3-3.7-0.3-3.7 0-8 2.7-3.2 2.7-3.2 5.4-5.3z"/><path class="bA" d="m256.5 456.5q2 0.7 4 1.4 0 1.3 0 2.6 2.6 0 5.3 0 0 1.4 0 2.7c-2.2 0-4.4 0-6.6 0q0-1.3 0-2.7-1.4 0-2.7 0 0-1.9 0-4z"/><path class="bB" d="m284.5 180.5c2.7 2.7 2.7 2.7 2.8 6.2q-0.1 1.5-0.1 3.1-2 0-4 0-0.1-4 0-8 0.6-0.6 1.3-1.3z"/><path class="bC" d="m177.8 121.8c1.2 4.1 1.5 7.8 1.3 12-5.3-6.3-5.3-6.3-5.3-9.3q2-1.3 4-2.7z"/><path class="bD" d="m204.5 71.2q1.3 0.6 2.7 1.3c0.8 4.1 0.8 4.1 1.3 8-1.3 0.7-1.3 0.7-2.7 1.3q0-1.9 0-4-1.3 0-2.6 0c0.4-2.2 0.8-4.4 1.3-6.6z"/><path class="bE" d="m259.2 65.8q0 1.3 0 2.7c-3.1 0-6.2 0-9.4 0q0-1.3 0-2.7c3.6-1.8 5.6-0.9 9.4 0z"/><path class="aV" d="m311.2 484.5q1.9 0.7 4 1.4 0 1.3 0 2.6 1.9 0 4 0-0.7 2-1.4 4-1.9-0.6-4-1.3 0-1.3 0-2.7-1.3 0-2.6 0 0-1.9 0-4z"/><path class="bF" d="m291.2 477.9c3.1 0.4 3.1 0.4 6.6 1.3q1.3 2 2.7 4-0.7 2-1.3 4c-6.5-6.3-6.5-6.3-8-9.3z"/><path class="bG" d="m131.1 335.2c2.5 0.3 2.5 0.3 5.4 1.3 1.6 2.8 1.6 2.8 2.6 5.4-2.6-0.9-5.2-1.8-8-2.7q0-2 0-4z"/><path class="bH" d="m217.8 103.2q1.3 0 2.7 0 0 2.6 0 5.3 2 0.7 4 1.3c-1.3 2-1.3 2-2.7 4-2.6-4.6-2.6-4.6-5.3-9.3q0.6-0.7 1.3-1.3z"/><path class="bI" d="m323.2 103.2c2.6 2.2 5.2 4.4 8 6.6q-2 0.7-4 1.4-2-1.3-4-2.7 0-2.6 0-5.3z"/><path class="bJ" d="m161.8 45.8q2 0 4 0c0 2.2 0 4.4 0 6.7q-2 0.6-4 1.3c0-2.6 0-5.3 0-8z"/><path class="bK" d="m177.8 33.8c2.7 2.7 2.7 2.7 2.7 6.7-2.6-0.4-2.6-0.4-5.4-1.3q-0.6-2-1.3-4 2-0.7 4-1.4z"/></svg>